<?xml version="1.0" encoding="utf-8"?>
<!-- Generator: Adobe Illustrator 24.1.1, SVG Export Plug-In . SVG Version: 6.00 Build 0)  -->
<svg version="1.1"
	 id="svg1" inkscape:version="1.4 (86a8ad7, 2024-10-11)" sodipodi:docname="KATSEYE dark 2024.svg" xmlns:inkscape="http://www.inkscape.org/namespaces/inkscape" xmlns:sodipodi="http://sodipodi.sourceforge.net/DTD/sodipodi-0.dtd" xmlns:svg="http://www.w3.org/2000/svg"
	 xmlns="http://www.w3.org/2000/svg" xmlns:xlink="http://www.w3.org/1999/xlink" x="0px" y="0px" viewBox="0 0 783 881.1"
	 style="enable-background:new 0 0 783 881.1;" xml:space="preserve">
<style type="text/css">
	.st0{fill:#FFFFFF;}
</style>
<sodipodi:namedview  bordercolor="#000000" borderlayer="false" borderopacity="0.25" id="namedview1" inkscape:current-layer="layer1" inkscape:cx="1137.9354" inkscape:cy="455.33476" inkscape:deskcolor="#d1d1d1" inkscape:document-units="mm" inkscape:pagecheckerboard="0" inkscape:pageopacity="0.0" inkscape:showpageshadow="false" inkscape:window-height="991" inkscape:window-maximized="1" inkscape:window-width="1920" inkscape:window-x="-9" inkscape:window-y="-9" inkscape:zoom="0.62261884" pagecolor="#404040">
	</sodipodi:namedview>
<g id="layer1" transform="translate(-2530.3864,471.86185)" inkscape:groupmode="layer" inkscape:label="Layer 1">
	<path id="path5-5-9" class="st0" d="M2924.1,504.1c-27.4,0-49.5,13.7-62.3,28.8c-5.3,6.2-10.3,12.2-15.3,12.2
		c-11,0-13-35.6-13-35.6h-199.3V612h13.6c0,0,4.3-25.2,10.1-46.5c8.3-30.9,22.1-37.8,36-37.8c12.2,0,22.4,5.2,22.4,23.3v77.4
		c0,21-1.9,45.7-4.3,65.1c-2.1,17.4-6.6,33.9-12.1,43.6c-4.7,8.1-10.5,15.8-24.8,15.8c-23.2,0-33.7-17.3-47.3-50.7
		c-26.8-65.5-38-91.9-76.3-192.7h-18c-14.2,34-27.2,66.3-39.5,98.7c-9.6,25.2-18.5,50.2-28.8,77.2l-11.3,29.6
		c-2.6,6.8-5,13.8-10.8,13.8c-2.5,0-5.1-0.5-9.1-6l-43.3-60.8c-3.8-5.3-7.3-10.7-10.2-16.4c-8.5-17.1-9.9-36.9,11.8-64.2
		c42.1-52.9,55.8-55.5,69.1-58.7v-13.4h-94.3v13.4c10.6,3,15.1,9.7,15.1,15.3c0,13.5-21.8,46.2-51.9,73.5
		c-5.8,5.3-11.2,9.8-18.9,9.8c-7.6,0-13.6-4.9-13.6-18.9c0-60.6,6.2-79.8,28.6-79.8v-13.4h-86.9v13.4c25.5,0,28.8,11,28.8,117.5
		c0,110.2-3.9,117.5-28.8,117.5V771h86.8v-13.4c-17.4,0-27.9-3.9-27.9-54.5c0-27.1,11.5-48.8,28.8-48.8c20.9,0,32.6,20.1,39.4,31.5
		c26.4,44.2,29.6,59.9,24.1,66c-3.8,4.3-12.1,5.8-12.1,5.8V771H2500v-13.4c0,0-32.2-5-13.6-52.6c5.8-15,16.3-20.3,40.6-20.3
		c32.6,0,49,12,56.9,27c20.8,39.2-6.9,45.9-6.9,45.9V771h212.9v-13.4c-36.2-7.5-38.7-40.2-38.7-129.5v-77c0-14.8,7.5-23.3,21.6-23.3
		c12.2,0,28.3,6,36.8,37.8c5.5,20.4,10.1,46.5,10.1,46.5h13.6c0-6.6,0-21.4,8.2-21.4c5.1,0,8.4,5.9,11.1,11.6
		c12.2,26,32.3,36.6,69.8,52.8c31,13.4,60.9,26.5,60.9,60c0,27.7-20,42.1-41.3,42.1c-44,0-78.3-59.1-85.7-85.8h-13.5v100h13.5
		l3.7-10.9c4.6-13.5,11-10.2,17.5-5.6c23.2,16.4,43.6,22,66.2,22c44.8,0,73.7-28.4,73.7-75.2c0-45.7-40.5-65.8-77.8-82
		c-31.7-13.7-60.4-27.4-60.4-59.6c0-23.2,15.3-36.3,37-36.3c30.9,0,60,34.2,73.6,73.2h13.4v-87.5h-13.4l-1.9,8.4
		c-2.5,11-8.8,6.4-13.7,3.1C2964.7,514.9,2950,504.1,2924.1,504.1z M3020.2,509.6V523c24.2,0,29.1,10.8,29.1,117.5
		s-4.9,117.5-29.1,117.5v13.4h187.5v-98h-13.5c-8.6,68.4-19.2,80.2-61.2,80.2c-35.5,0-50.2-13.5-50.2-51.5v-43.6
		c0-14.3,6.8-15.6,14.8-15.6c22.9,0,34,1.7,41.2,10c5.4,6.2,7.6,29.3,7.6,29.3h13.7v-97.1h-13.7c0,0-2.1,21.9-7.6,29.6
		c-6.1,8.5-22.9,9.9-41.2,9.9c-13,0-14.8-7.3-14.8-17.2v-28.6c0-43.5,28.3-50.9,49.2-50.9c22.9,0,39.7,9.8,47.1,35.4
		c4.5,15.5,7.8,40.5,7.8,40.5h13.5v-45.4c0-17,2.5-33,17.2-33c7.4,0,12,3.1,17.8,12.5l53.6,86.6c6.1,9.9,9.8,16.9,13.4,30.1
		c1.9,7,3.4,14.7,3.4,21.5c0,48.2-5,69.9-14.4,77.4c-5.5,4.4-10.3,4.4-18.3,4.4v13.4h95.9v-13.4c-7,0-12.6-0.3-17-3.6
		c-10.3-7.7-14.4-28.6-14.4-78.2c0-18.5,4.4-34.3,14.9-51.7c11.3-18.6,14-23.4,28.5-45.3c19.1-28.7,30.3-35.1,39.4-35.1
		c12.6,0,22,11.9,23.7,27.3c1.7,15.1,1.7,34.9,1.7,69.1c0,106.7-4.9,117.5-29.1,117.5v13.4h187.5v-98h-13.5
		c-8.6,68.4-19.2,80.2-61.2,80.2c-35.5,0-50.2-13.5-50.2-51.5v-43.6c0-14.3,6.8-15.6,14.8-15.6c22.9,0,34,1.7,41.2,10
		c5.4,6.2,7.6,29.3,7.6,29.3h13.7V585h-13.7c0,0-2.1,21.9-7.6,29.6c-6.1,8.5-22.9,9.9-41.2,9.9c-13,0-14.8-7.3-14.8-17.2v-28.6
		c0-43.5,28.3-50.9,49.2-50.9c22.9,0,39.7,9.8,47.1,35.4c4.5,15.5,7.8,40.5,7.8,40.5h13.5v-94.1h-254.5V523c0,0,12.9,1,19.1,7
		c11.9,11.4,6.3,26.6-17.1,69c-11.5,20.9-19.9,20.9-30.4,3.9c-30.1-48.6-42.2-65-30.4-76.1c2.5-2.3,8.3-3.7,8.3-3.7v-13.6
		L3020.2,509.6L3020.2,509.6z M2534.6,577.9c4.9,0,8.4,6.2,10.5,11.8l7.2,18.9c2.7,7.1,21.5,58.2-30,58.2h-8.1
		c-16,0-14.5-9.2-10.5-20.1l21.3-58.3C2526.9,583.1,2530.2,577.9,2534.6,577.9L2534.6,577.9z"/>
	<path id="path1-7" class="st0" d="M3272.3-36.1c0.1-66.2-15.1-133.3-47-194.8C3128.4-417.2,2914-481,2746.4-373.5
		c-112.4,72.1-175.2,202.9-175.3,337.3c-0.1,66.2,15.1,133.3,47,194.8c96.8,186.3,311.2,250.1,478.9,142.6
		C3209.3,229.1,3272.2,98.3,3272.3-36.1L3272.3-36.1z M3139.8-162.1C3127-94.6,3093-28.3,3064,16.9c-11,17.2-27.9,14.4-37.1,4.4
		l-46.3-52.2c-1.2-1.3-2.1-3.3-2.1-5.2c0-2,0.9-3.9,2.1-5.2l135.3-149.3c0,0,1.6-1.4-2.6-6.4c-4.2-5-5.7-3.5-5.7-3.5l-129.5,82.2
		c-13.7,8.7-20.1,2.9-21.2-9.9c-1-11.5-7.4-83.1-10-112.2c-1.3-14,3.2-28.5,16-36c38-22.5,78.2-33.5,98.9-34.1
		c19.2-0.5,35.9,4.1,49.2,13.8C3141.8-274.5,3152.1-226.6,3139.8-162.1L3139.8-162.1z M2865.2-118.5l-26.9-17.1
		c-11.7-7.4-12.4-18.3-4.3-27.8c15.4-18.2,23.5-27.4,39.9-42.9c18.5-17.5,18.7,10.6,17.1,27.9l-4.5,50.1
		C2885.4-115.6,2878.9-109.8,2865.2-118.5L2865.2-118.5z M2952.3,106.2l4.5-50.1c1.1-12.8,7.6-18.6,21.3-9.9l26.9,17.1
		c11.7,7.4,12.4,18.3,4.3,27.8c-15.4,18.2-23.5,27.4-39.9,42.9C2950.9,151.5,2950.7,123.4,2952.3,106.2L2952.3,106.2z M2945.4-407.3
		c37.3,4,73.7,15.8,107,37.9c17.6,11.7,25.7,28.8-5.8,34.6c-25.9,4.8-59,17.2-80.8,28.9c-13.2,7.1-24.9-1.3-26.5-18.9
		c-0.6-6.4-5.1-57.1-6.2-68.9C2932-405.6,2933.3-408.6,2945.4-407.3L2945.4-407.3z M2676.7,94.1c-1.7,9.1-2.7,14.5-3.9,21.4
		c-0.9,4.6-3.7,7.4-6.6,7.8c-2.9,0.4-5.8-1.4-7.8-6.9c-18.5-50.7-23.8-103.9-23.8-152.6c0.1-129.1,50.5-254.6,142.9-323.8
		c38.1-28.6,79.2-43,120.3-47.3c12.1-1.3,13.4,1.8,12.3,13.5c-0.9,8.7-6.3,68.6-9.3,102.7c-1.8,21-9.7,38.1-23.5,50.2
		c-24.2,21.1-37.7,36.3-60.1,62.9c-9.7,11.5-21.4,15.4-34.2,7.2l-47.3-29.9c0,0-1.6-1.3-5.7,3.7c-4.2,5-2.6,6.3-2.6,6.3l40.5,44
		c5.8,6.4,8.4,21.7,0.5,33.5C2731-57.5,2690.2,23,2676.7,94.1L2676.7,94.1z M2703.4,89.8c12.8-67.5,46.8-133.8,75.8-179
		c11-17.2,27.9-14.4,37.1-4.4l46.3,52.2c1.2,1.3,2.1,3.3,2.1,5.2c0,2-0.9,3.9-2.1,5.2l-135.3,149.3c0,0-1.6,1.4,2.6,6.4
		c4.2,5,5.7,3.5,5.7,3.5L2865.1,46c13.7-8.7,20.1-2.9,21.3,9.9c1,11.5,7.4,83.1,10,112.2c1.3,14-3.2,28.5-16,36
		c-38,22.5-78.2,33.5-98.9,34.1c-19.2,0.5-35.9-4.1-49.2-13.8C2701.5,202.2,2691.2,154.3,2703.4,89.8L2703.4,89.8z M2897.9,335
		c-37.3-4-73.7-15.8-107-37.9c-17.6-11.7-25.7-28.8,5.8-34.6c25.9-4.8,59-17.2,80.8-28.9c13.2-7.1,24.9,1.3,26.5,18.9
		c0.6,6.4,5.1,57.1,6.2,68.9C2911.2,333.3,2909.9,336.3,2897.9,335L2897.9,335z M3208.7-36.1c-0.1,129.1-50.5,254.6-142.9,323.8
		c-38.1,28.6-79.2,43-120.3,47.3c-12.1,1.3-13.4-1.8-12.3-13.5c0.9-8.7,6.3-68.6,9.3-102.7c1.8-21,9.7-38.1,23.5-50.2
		c24.2-21.1,37.7-36.3,60.1-62.9c9.7-11.5,21.4-15.4,34.2-7.2l47.3,29.9c0,0,1.6,1.3,5.7-3.7c4.2-5,2.6-6.3,2.6-6.3l-40.5-44
		c-5.8-6.4-8.4-21.7-0.5-33.5c37.3-55.6,78.1-136.2,91.6-207.2c1.7-9.1,2.7-14.5,3.9-21.4c0.9-4.6,3.7-7.4,6.6-7.8
		c2.9-0.4,5.8,1.4,7.8,6.9C3203.4-138.1,3208.7-84.9,3208.7-36.1L3208.7-36.1z"/>
</g>
</svg>
