<svg xmlns="http://www.w3.org/2000/svg" viewBox="0 0 1361.61 508.85"><defs><style>.cls-1{fill:#fff;}</style></defs><g id="Capa_2" data-name="Capa 2"><g id="Capa_1_copia" data-name="Capa 1 copia"><path class="cls-1" d="M194.93,164.48l-1.87,2.67Z"/><path class="cls-1" d="M113.28,149.3a4.27,4.27,0,0,1,2.21-4A5.4,5.4,0,0,1,113.28,149.3Z"/><path class="cls-1" d="M115.39,145.44c.67-.7,1.35-1.4,2-2.11C116.74,144,116.06,144.74,115.39,145.44Z"/><path class="cls-1" d="M117.35,143.41c.66-.72,1.32-1.43,2-2.15C118.67,142,118,142.69,117.35,143.41Z"/><path class="cls-1" d="M141.36,119.23l1.84-1.9C142.59,118,142,118.6,141.36,119.23Z"/><path class="cls-1" d="M6.8,187.56c-2.49-2.91-2.7-5.72.38-8.38C9.92,181.69,9.65,185.27,6.8,187.56Z"/><path class="cls-1" d="M99.16,129.1l-2,2Z"/><path class="cls-1" d="M147,92.59c-.7.84-1.4,1.69-2.11,2.53C145.64,94.28,146.34,93.43,147,92.59Z"/><path class="cls-1" d="M217,125.1a7.64,7.64,0,0,1,4-6.13A5.9,5.9,0,0,1,217,125.1Z"/><path class="cls-1" d="M215,131.14c0-2.28.24-4.45,2.07-6.1C217.21,127.36,217.07,129.58,215,131.14Z"/><path class="cls-1" d="M211.18,151.16l-2,2Z"/><path class="cls-1" d="M215.16,147.15l-2,2Z"/><path class="cls-1" d="M217.15,143.15l-1.87,2Z"/><path class="cls-1" d="M223.17,133.16l-2,2Z"/><path class="cls-1" d="M213.49,133.15,215.1,131Z"/><path class="cls-1" d="M227.15,125.15l-1.94,2Z"/><path class="cls-1" d="M7.55,186.86c-3.27-9.86,7.27-8.22,8.13-2.14C15,188.82,10.51,186.74,7.55,186.86Z"/><path class="cls-1" d="M659.19,195.16l2.16-1.91Z"/><path class="cls-1" d="M971.55,73.41c-2.79,3-6.57,3.4-10.29,4C964.05,74.4,966.36,70.18,971.55,73.41Z"/><path class="cls-1" d="M747.83,125.25c3.23-8.44,2.2-11.07-5-15.82a1.85,1.85,0,0,0,0,.23l-.15-.09c-3.7-3.88-10.16-5-14.67-3.8a4.58,4.58,0,0,0-4.25,2.57,4.13,4.13,0,0,0-.73,2.83c-1,9.18,10.1,15.86,17,19.61,3.84,2.08,7.39-1.21,7.52-4.51C747.68,125.93,747.76,125.59,747.83,125.25Zm-4.18-8.79a6.56,6.56,0,0,0-3-.41,27.83,27.83,0,0,0,2.24-2A14.76,14.76,0,0,0,743.65,116.46Z"/><path class="cls-1" d="M131.1,307.08l-1.91,2.11Z"/><path class="cls-1" d="M457.24,353.22l1.76,1.71Z"/><path class="cls-1" d="M143.17,131.22l-2,1.88Z"/><path class="cls-1" d="M243.35,87.84c0-.06,0-.12,0-.18,4.17-20.18-35.07-1.69-41.92,5.81l-20.77,12.69-.23.16c-4.1,1.67-7.15,6-10.71,8.53l-.53.38c-1.94.55-4.37,2.79-6.92,5.39a33.42,33.42,0,0,0-3.1,3.19c-.7.73-1.41,1.44-2.11,2.11a13.55,13.55,0,0,1-3.61,1.47,5.56,5.56,0,0,0-.88-.35,4.39,4.39,0,0,0-.55-1.16,5.44,5.44,0,0,0,.15-1.18c0-.27,0-.53,0-.8s0-.3,0-.45c0-.43.06-.85.11-1.28a6.62,6.62,0,0,0,.31-.92,5.3,5.3,0,0,0,.46-1.93,5.37,5.37,0,0,0,.91-3.38c.05-.14.1-.28.14-.42,5-10.51,19.72-19,20.29-29.24a5.35,5.35,0,0,0-1.56-6.38l-.09-.17h-.17a5,5,0,0,0-2.56-.66,5.51,5.51,0,0,0-1.51.21,5,5,0,0,0-1.61.46c-6.48,1.11-11.51,5.45-16.08,9.69a97,97,0,0,0-12.17,9.5,249.38,249.38,0,0,0-22.51,16.82c-8.74,5.74-17.39,11.64-26.9,16.09-4.69,2.19-9.28,4.53-13.81,7-3.48,1.18-7,2.37-9.41,5.25q-2.34,1.33-4.66,2.69c-5.52,3.21-11.06,6.38-16.5,9.72-13.74,5.75-24,20.43-40.51,16.35-2-.6-3.61,1.5-4.15,3.56-2.85,18,20.47,21.22,30.89,10.59h0c6.93-7.54,17.68-9.52,25-16.81l2.31-1.24c8.72-1.45,14.59-11.21,23.32-14.12.35-.25.65-.49.94-.73a176.89,176.89,0,0,0,19-10.69,127.84,127.84,0,0,0,13.41-10.56c2.55-.83,4.38-2.65,6.13-4.57,2.41-1.49,4.54-3,7.22-3.45a4.48,4.48,0,0,0,.36.4c0,2.3-2.87,5-5.45,7.94-2.58,2.39-5.16,4.82-7.67,7.41-3.81,8.37-20.28,24.16-13.59,32.57,11.29,10.07,24.18-4,34.13-14.58,6.88-4.84,13.52-10,20.1-15.27,3.39-1.72,4.91-3.21,6.09-4.89,4.46-3.6,8.92-7.19,13.43-10.72A241.77,241.77,0,0,1,199.68,111c.67-.4,2.23-1.33,4.28-2.47a20.06,20.06,0,0,0,6.7-3.54c4.46-2.21,9.22-4.21,12.23-4.47,6.92,4.11-15.2,30.44-20.83,44-5.82,7.83-9.69,17.07-13.59,25.95q-3.89,8.85-7.3,17.9c-6.21,11.19-12,22.69-18,33.91-1.52,2-2.95,4.11-4.31,6.22a20.14,20.14,0,0,0-3.52,5.84c-1.75,3.08-3.37,6.23-4.9,9.43-7.66,13.71-22.13,44.77-29.32,65.35-.44.84-.88,1.68-1.3,2.53-1.69,2.07-3.29,6.4-4.59,11.63-.28.8-.56,1.61-.82,2.42-.07.21-.12.41-.17.61-10.36,32,6.31,76.79,10.85,13,1.74-6.79,3.56-13.57,5.95-20.17a94.56,94.56,0,0,1,6.76-14,10.41,10.41,0,0,0,2.68-4.82q.59-1.06,1.17-2.16C146.47,289,149.26,279,153,269.42c25.33-42.62,46.12-87.54,70.1-130.87a5.58,5.58,0,0,0,.53-.7c3.89-6.29,8.05-12.68,11.54-19.3a15.81,15.81,0,0,0,3-6.1c.71-1.61,1.37-3.23,2-4.88C243.25,102.7,245.14,93.44,243.35,87.84Z"/><path class="cls-1" d="M235.18,109.15l-2,2Z"/><path class="cls-1" d="M241.06,97.1l-1.81,2.12Z"/><path class="cls-1" d="M593.21,217.64l-2.14,1.45Z"/><path class="cls-1" d="M645.13,193l-2.36,2.12Z"/><path class="cls-1" d="M817.16,135.12l-2.25,1.93Z"/><path class="cls-1" d="M551.46,185.18c-.48,2.27-1.93,6.07-4.73,3.61C546.59,186.6,552.69,181.05,551.46,185.18Z"/><path class="cls-1" d="M561.14,175.1a4.06,4.06,0,0,1-4,4.06A7.74,7.74,0,0,1,561.14,175.1Z"/><path class="cls-1" d="M523.21,215.21l2-2Z"/><path class="cls-1" d="M525.21,213.2l2-2Z"/><path class="cls-1" d="M551.46,185.18c-.3-1.37.13-2.21,1.64-2.22Z"/><path class="cls-1" d="M555.12,181,553,183.12Z"/><path class="cls-1" d="M557.18,179.13l-2.17,2Z"/><path class="cls-1" d="M563,172.54l-1.89,2.63Z"/><path class="cls-1" d="M587.22,145.19l2-1.82Z"/><path class="cls-1" d="M635.29,129.26c-1.65-2-4-2-6.31-2.25,4-3.08,18.75-9.27,10.33.36C638.16,128.41,637.36,130.19,635.29,129.26Z"/><path class="cls-1" d="M613.08,147.16l2.15-1.86Z"/><path class="cls-1" d="M639.4,127.23l1.69-1.66Z"/><path class="cls-1" d="M691.22,247.16a2.57,2.57,0,0,1-2.38-1.72Z"/><path class="cls-1" d="M689,245.61a2.62,2.62,0,0,1-2.14-2.23C687.55,244.12,688.26,244.87,689,245.61Z"/><path class="cls-1" d="M707.17,237.31l2.05,1.87Z"/><path class="cls-1" d="M705.2,217.21l-2,2Z"/><path class="cls-1" d="M693.17,219.15l2-1.92Z"/><path class="cls-1" d="M707.21,215.22l-2,2Z"/><path class="cls-1" d="M697.18,217.18l2-1.94Z"/><path class="cls-1" d="M713.21,211.21l-2,2Z"/><path class="cls-1" d="M703.16,213.16l2-2Z"/><path class="cls-1" d="M715.22,209.22l-2,2Z"/><path class="cls-1" d="M705.21,211.2c.66-.67,1.33-1.33,2-2C706.54,209.87,705.87,210.53,705.21,211.2Z"/><path class="cls-1" d="M707.21,209.2l2-2Z"/><path class="cls-1" d="M709.21,207.19l2-1.9Z"/><path class="cls-1" d="M713.19,205.18l2-2Z"/><path class="cls-1" d="M627.21,213.21l-2,2Z"/><path class="cls-1" d="M633.2,209.26l-2,1.92Z"/><path class="cls-1" d="M637.2,207.24l-2.08,1.88Z"/><path class="cls-1" d="M511.44,231.18l1.77,2Z"/><path class="cls-1" d="M379.16,209.16l1.81-2.22Z"/><path class="cls-1" d="M743.15,113.2a9.92,9.92,0,0,1,2,6C735.68,119.39,731.61,108,743.15,113.2Z"/><path class="cls-1" d="M613.31,441.39l2-2.16Z"/><path class="cls-1" d="M1217.53,211l-2.37-1.59Z"/><path class="cls-1" d="M825.25,199.22l-2,2Z"/><path class="cls-1" d="M823.24,145.27l2.06-2Z"/><path class="cls-1" d="M956.87,94.92l2.3-1.81Z"/><path class="cls-1" d="M375.16,349.3l-2.27,1.76Z"/><path class="cls-1" d="M733.26,243.22l-2,2.13Z"/><path class="cls-1" d="M737.21,237.2l-1.94,2.13Z"/><path class="cls-1" d="M739.2,235.2l-2,2Z"/><path class="cls-1" d="M579.19,315.19l-2,1.88Z"/><path class="cls-1" d="M571.24,313.25l-2,2C568.58,313.51,569.32,312.37,571.24,313.25Z"/><path class="cls-1" d="M603.27,311.25l-2.06,1.82Z"/><path class="cls-1" d="M553.25,319.27c-1.14,2.09-4.24,2.41-2.26-.34Z"/><path class="cls-1" d="M675.21,345.27l-1.89,1.93Z"/><path class="cls-1" d="M669.23,299.11l12,2.08c-7.16,4-16.19,1-24,3.82C659.59,299.73,666,302.63,669.23,299.11Z"/><path class="cls-1" d="M687.4,301l-.21,2.23-6-2.05C683.15,297.28,685.24,297.85,687.4,301Z"/><path class="cls-1" d="M557.3,185.48a4.49,4.49,0,0,1,4-2.17A5.33,5.33,0,0,1,557.3,185.48Z"/><path class="cls-1" d="M555.1,189.12l-1.9,0,2.23-1.86A4.57,4.57,0,0,1,555.1,189.12Z"/><path class="cls-1" d="M555.29,187.38l2.14-2.07Z"/><path class="cls-1" d="M745.33,227.31l1.7-2.2Z"/><path class="cls-1" d="M553.16,189.16c0,3.13-6.62,4.83-5.67.26C549.78,187.62,551.23,186.21,553.16,189.16Z"/><path class="cls-1" d="M635.27,129.26c-.67.67-1.33,1.35-2,2Z"/><path class="cls-1" d="M979.36,315.16c.11-8.91,8.41-15.9,11.89-23.84C990.91,301.07,985.16,308.13,979.36,315.16Z"/><path class="cls-1" d="M997.05,282.94l-1.6,2.21A2.37,2.37,0,0,1,997.05,282.94Z"/><path class="cls-1" d="M943.27,375.24l-2,2Z"/><path class="cls-1" d="M945.33,373.23l-2.09,2Z"/><path class="cls-1" d="M955,357.1l-1.73,2.18C953.88,358.56,954.45,357.83,955,357.1Z"/><path class="cls-1" d="M691.14,323.16l2-2Z"/><path class="cls-1" d="M1349.19,145.17l1.93-2Z"/><path class="cls-1" d="M1351.17,143.11l2.06-1.87Z"/><path class="cls-1" d="M1233.23,171.27l-2,1.91Z"/><path class="cls-1" d="M1115.41,91.29l-2.15,2Z"/><path class="cls-1" d="M1061.13,115.17l2.06-2Z"/><path class="cls-1" d="M1063.17,113.19l2-2.07Z"/><path class="cls-1" d="M1049.46,97.89l1.83-2.65Z"/><path class="cls-1" d="M783.21,233.18l2-2Z"/><path class="cls-1" d="M1037.21,139.22l2.14-2Z"/><path class="cls-1" d="M1039.27,137.34l2.25-2A2.72,2.72,0,0,1,1039.27,137.34Z"/><path class="cls-1" d="M973,90.58,970.91,93Z"/><path class="cls-1" d="M713.21,275.25l-1.89,1.93Z"/><path class="cls-1" d="M719.14,263.15c-.59.72-1.18,1.43-1.76,2.15Z"/><path class="cls-1" d="M699.37,295.31l-2.12,1.94Z"/><path class="cls-1" d="M707.41,299.26l1.83-2Z"/><path class="cls-1" d="M1057.29,255.32l2.25-1.93Z"/><path class="cls-1" d="M1027,129.21l-1.76,2Z"/><path class="cls-1" d="M1021.14,263.18l-2,1.94Z"/><path class="cls-1" d="M1032.94,135.08l2.19-2Z"/><path class="cls-1" d="M1361.35,141.54c.51-2.16.36-4.42-1.31-5.85a8.27,8.27,0,0,0-.74-1.68c-1.8-3.07-5-4.44-8.36-4.75-2.33-.21-4.69-.24-7-.22h-.1c-2,0-4,.07-6,.06-4.61,0-9.18-.23-13.7.84a5,5,0,0,0-1.89.88c-1,.14-2,.3-3,.47a69.35,69.35,0,0,0-15.57,5.2c-8.05,2.74-16.81,6.1-24.29,9.24-9.14,3-18.17,6.26-26.12,12A5.42,5.42,0,0,0,1252,159c-11.28,5-20.62,9.57-23,12.14a56,56,0,0,0-19.26,14.26,4.48,4.48,0,0,0-.32.44l-.85.54c-26.72,1.56-54.68,8.21-82.46,14.2q-14.44,2.1-28.88,4.22c-4.23.63-8.46,1.3-12.62,2.27a11.63,11.63,0,0,0-5.61,1.13c-5.22.49-10.33,1.53-14.91,4.14a5.43,5.43,0,0,0-1.22,1,5.21,5.21,0,0,1-3-2.35c.52-1.08,1.09-2.15,1.69-3.2a5.46,5.46,0,0,0,1.3-2.17c4.42-7,10.31-13.31,15.11-19.72,6.57-8.77,14.4-17.83,17.07-28.64,4.69-6.4,9.3-12.87,13.54-19.61A205.78,205.78,0,0,0,1124,113.61c9-9.8,21.23-25.27,13.76-33.32a4.3,4.3,0,0,0-3.16-2.69c-5.79-.92-13.62,0-18.69,3.88-5.3,2.39-10.46,5.43-14.85,7.49l0,0h0c-1.29.58-4.19,1.88-7.88,3.62a187.59,187.59,0,0,0-25.72,12.76,19,19,0,0,0-6.84,4.27c-1.18.77-2.35,1.55-3.51,2.35A5.53,5.53,0,0,0,1056,113a72.37,72.37,0,0,1-14,6.76,22.48,22.48,0,0,1-4.14,1.07c0-.38,0-.77.05-1.15s0-.68,0-1l.08-.14a4.34,4.34,0,0,0,.88-1.45,22.54,22.54,0,0,0,1.11-2c4.39-6.85,10.17-13.08,12.4-20.67,0,0,0-.11.07-.17a3.81,3.81,0,0,0,.74-2.18,20.81,20.81,0,0,0,.59-3c1.2-4.38-3.52-10.39-14.21-5.37L1035.69,86a27.48,27.48,0,0,0-9.19,4.48c-14.44,4.4-26.85,14.83-40.14,21.88a46.17,46.17,0,0,0-8.8,3.24,55.5,55.5,0,0,0-4.93,3.87,14.18,14.18,0,0,1-4.89,1.39c-6.89-3.73,11.48-18.3,13.4-23.71h0c2.09-3.05,5.24-6.32,7.9-9.76A69.73,69.73,0,0,0,996,78.18c13.38-19.87-26.9-6-34.7-.8l.08,0c-6.77,9-34.3,19-49.63,29.27l-2,1a46.88,46.88,0,0,0-7.38,4.38,7.18,7.18,0,0,0-.79.67,24.26,24.26,0,0,0-3.62,2.45l-3.07,1.72c-3.7,2.08-7.49,4-11,6.43a23.49,23.49,0,0,0-3,2.58,35.2,35.2,0,0,0-8,6.06,4.94,4.94,0,0,0-1.17,1.3c-2.17,2.62-3.36,5.33-2.72,7.64,7,9.66,17.72-3.51,24.29-7.64a16.07,16.07,0,0,1,3.11-3,128.44,128.44,0,0,0,18.33-7.88c6.72-3.59,12.28-8.63,18.44-13a101.18,101.18,0,0,1,18.33-10.09c2.78-1.23,5.58-2.48,8.41-3.64l.61-.11a7.65,7.65,0,0,1,1.08.78,8.1,8.1,0,0,1,.91,2.63c-1.47,5-5.3,11.52-6.12,13-.46.83-.91,1.66-1.36,2.49a36.8,36.8,0,0,1-2.77,3.12,15.28,15.28,0,0,0-3.84,5.66c-1.88,3-3,6.81-2.17,9.76a6.68,6.68,0,0,0,4.89,4.94c5.07,2.48,11.44.17,16.87-2.54a5.51,5.51,0,0,0,1.65-.1c9.13-1.95,16.22-8,23.65-13.23l9.33-4.6c1.06-.53,2.11-1.08,3.16-1.64a6.87,6.87,0,0,0,.72-.13,32.16,32.16,0,0,0,10.44-5,19.4,19.4,0,0,1,4.57-2.67c.11,0,.42-.09.83-.15.72.16,1.42.34,2.11.56a5.29,5.29,0,0,1,.8,4.47l0,.07a4.47,4.47,0,0,0-1,2.67c-.08.19-.15.37-.24.55-6.27,7.36-12.22,15-16.62,23.63q-1,1.22-2,2.49c-4,3.77-8.27,10-5.42,15,8.36,7.13,25-6.19,34.62-15.2,14.14-6.3,25.36-16.76,38.34-25.21a115.35,115.35,0,0,1,23-11.52c3.36-1.24,6.77-2.36,10.18-3.44a8.72,8.72,0,0,1,3.32.49c1,.41,1,.63,1.2,1.5a1.63,1.63,0,0,0,.07.3c-.24.86-.51,1.75-.76,2.56a21.68,21.68,0,0,1-1.47,2.54c-5.57,3.61-8.92,11.1-12.45,16.37a211.76,211.76,0,0,0-13.55,23.08c-3.34,6.63-7.07,13.12-11,19.5A136.45,136.45,0,0,0,1054.1,193c-.91,1.73-1.79,3.47-2.67,5.22q-5,7.63-9.9,15.35a102.47,102.47,0,0,1-14.72,5.89c-8.71.9-16.83,3.27-25.5-.26-.13.08-.25.13-.37.19-1.21-3.83-20.61-7.85-35.49,3.3-13.3,17.82,30.18,15.44,40.1,12.85,3.89-.18,7.78-.34,11.66-.35h0c12.8-1.56,6.16,2.63,4,10-1.91,3.71-6.22,6.68-8.58,10.08h-.05c-3.54.64-7.09,1.21-10.64,1.75a29,29,0,0,0-7.47.43c-9.2.35-18.41.8-27.6,1.4-16.6,1.09-33.42,2-49.74,5.41-3.22.66-6.41,1.36-9.61,2-3.48.36-7,.73-10.44,1.15l-11.48,1.39c-6.11.25-12.23.37-18.33.8a339.93,339.93,0,0,0-49.39,7.23,5,5,0,0,0-.92.29c-8.79.18-17.58.33-26.1,3.18l-3.25.4c-15.16-2.61-65.69,10.58-66.5.46,5.69-5.42,7.75-13.81,14.22-18.61Q746,255.63,757,249c3.76-1,7.54-2.2,11.29-3.51a12.86,12.86,0,0,0,7.08-2.13h0c.12-.23.28-.48.45-.75a85.94,85.94,0,0,0,9.63-4.73c4.06-2.34,7.68-4.88,12-6.7,3.83-1.59,7.37-3.34,10.22-6.43a5.06,5.06,0,0,0,1-1.39c2.09-1.37,4.15-2.81,6.15-4.33a53,53,0,0,0,7.73-4.84,5.09,5.09,0,0,0,1.64-1.78l5-4a4.86,4.86,0,0,0,2.57-4.15c2.27-2.44,2.21-4.29-2.48-4.81a5,5,0,0,0-2.34-.55,4.63,4.63,0,0,0-3.35,1.29,5.3,5.3,0,0,0-.54.39l-3.33,2.69a5.92,5.92,0,0,0-.83.52q-2.57,2-5.2,3.73a6,6,0,0,0-1,.36c-3.66,1.74-7.29,3.54-10.91,5.37a4.29,4.29,0,0,1-.5.07v-.07l-.37.11a4.89,4.89,0,0,0-1.94.64c-4.29,1.47-9.62,3.81-12.24,6.65l-1.53.52h0a6.61,6.61,0,0,0-2.58.85,33.23,33.23,0,0,1-8.42,2,4.84,4.84,0,0,1-3-.67c.85-2.74,1.81-5.91,2.68-9.18,1-1,1.92-1.94,2.86-2.93,3.35-3.5,7.26-7.17,9.35-11.65,4-3.35,6.94-10.77,9-14.68a37.87,37.87,0,0,1,2.5-4.16,5,5,0,0,0,2.1-1.83c.94-1.41,1.84-2.85,2.71-4.3,5.1-5.91,10.67-11.47,13.34-19.08h0c.42-.71.84-1.36,1.26-2a75.11,75.11,0,0,0,11.68-11.56q1.62-2.06,3.25-4.09a71.64,71.64,0,0,0,11.18-13.57c1.89-2.21,3.79-4.41,5.74-6.6a5.2,5.2,0,0,0,1-1.69c10.46-11.53,24.33-35.55,30.54-37.45,3.38-2.6,6.85-5.3,8.9-9.26h0a73.94,73.94,0,0,0,8.64-9.49C903.4,55.1,908.58,50,914,45.23c9.4-8.29,21.15-13.28,28.66-23.33,3.78-1.9,7.27-4.77,11.36-4,4.79.9,8.26-1.34,12.17-2.47,2.63.13,5.19-.21,8-.28,3.72-.1,7.33.94,11.06.85a5.61,5.61,0,0,0,1.2-.16c.87.17,1.73.34,2.59.54a5.39,5.39,0,0,0,1.29.15,12.5,12.5,0,0,1,2.84,1.24c2.14,1.28,3.54-.39,3.45-3,.52-9.33-3.76-12.64-10.1-13.48a4.8,4.8,0,0,0-2.05-.2h-.14c-.81,0-1.65,0-2.51,0C979.36.84,977,.09,974.52,0a22.85,22.85,0,0,0-3.4.17c-7.49-.81-14.46,1-21.69,3.52-19.75,3-32,17.33-44.24,31.68-.76.51-1.54,1-2.35,1.49a70.24,70.24,0,0,0-12.6,9.79C882.48,54,875,61.49,869.05,70.31a201.61,201.61,0,0,0-15.91,18.37C843.88,101,835,113.44,825.23,125.33c-3.89,4-7.93,8-11.58,12.18a79,79,0,0,0-6.15,8.26c-1.86,2.06-3.6,4.22-5.28,6.44l-.73.54a5,5,0,0,0-2,3.25c-1.9,2.66-3.74,5.35-5.62,8l-7.34,10.32c-2,2.44-3.82,4.9-5.48,7.42a4.76,4.76,0,0,0-1.83,1.93c-3.65,6.73-9.3,11.92-13.77,18.08a37.9,37.9,0,0,0-4,7c-.95.71-1.91,1.42-2.86,2.11a67.53,67.53,0,0,1-10,6.35c-3.8,1.87-8,2.85-11.89,4.5-1.1.46-2.19,1-3.29,1.43-6,1.79-13.77,5.33-16.27,5.89l.25,0c-3,.87-5.79,2.82-8.59,4.66a33.69,33.69,0,0,1-6.77,1.61,19.33,19.33,0,0,1-5.45.16,4.62,4.62,0,0,0-.82-1.18,3.49,3.49,0,0,0,0-.56,9.67,9.67,0,0,1-.06-1.78c2-2.27,4.63-4.05,6.92-5.89,3.79-3,7.65-6,11.69-8.74,5.06-3.41,11.17-6.22,14.42-11.55a3,3,0,0,0,.68-1.25c.1-.22.22-.43.32-.66a5.5,5.5,0,0,0,.45-2.15c2.32-3.74-6.91-11.19-17.14-.63h0a179.29,179.29,0,0,0-15,10.61c-1,.49-2,1-3,1.58a122.48,122.48,0,0,1-12.1,6.39,70.44,70.44,0,0,0-12.37,6.27,5.39,5.39,0,0,0-1.06.94l-.27.19h0c-10.31,5.25-21.58,7.58-32.56,10.78a103,103,0,0,1-11.24,1.6c-2.69-.69-5.14-1.9-6.31-4.29.12-12,17.19-21.06,24.25-29.85l1-.69c1.7-.75,3.39-1.52,5.06-2.34a51.74,51.74,0,0,0,7.5-3.95A4.09,4.09,0,0,0,659,197q2.15-2.49,4.2-5.07a6.1,6.1,0,0,0,.82-6.11c-.82-3.28-4.8-3.24-8.41-1.94-4,1.06-8,3.71-11.06,6a7.3,7.3,0,0,0-1.08,1c-12.16,7.46-24.18,15.66-37,21.83-2.56,1.23-5.23,2.36-8,3.45-2.12.55-4.27,1-6.43,1.47a4.28,4.28,0,0,0-3,2.07,23.36,23.36,0,0,0-3.71,1.91c-1.38.62-2.73,1.28-4.07,2a18.18,18.18,0,0,0-7.07,4.28c-.47.34-.93.7-1.39,1.06a159.05,159.05,0,0,1-29,7.62,4.91,4.91,0,0,0-2,.77c-2.91.43-5.55.53-7.46-.2-5.89-.14-9.77-3.76-13.56-7.48a3.93,3.93,0,0,1-1.47-3,16.61,16.61,0,0,1,2.63-4c1-1.27,1.9-2.54,2.9-3.76,5.31-2.37,13.64-8.2,18.41-11.38h0a35.6,35.6,0,0,0,4.54-2.38c5.29-1.84,9.8-6.08,14.61-8.77,6.25-3.51,12.83-6.38,19.19-9.67,9.75-5,17.74-11.77,25.48-19.09,11.75-6.27,21.23-17,30.87-25.92a4.94,4.94,0,0,0,1.28-.64c5.24-3.58,11.46-8.26,15.26-14a9.06,9.06,0,0,0,2.85-5.78l-.11.06a18.66,18.66,0,0,0,.63-2.78,5.48,5.48,0,0,0-2.05-5.45c-5.15-4.78-24.92,2.59-38.9,9.21-9.64,3.35-17.52,9.37-25.49,15.58-2,1.57-4,3.11-6.1,4.58a84.77,84.77,0,0,0-9.88,6.33,21.89,21.89,0,0,0-6.78,6.23c-15.44,9.92-28.53,23.54-40.24,37.94a66.8,66.8,0,0,0-7.83,8.27c-.37.31-.73.63-1.09,1-2.2,2-3.64,4.77-5,7.49-1,.76-1.92,1.51-2.89,2.24-2.05,1.55-4.14,3.22-6.29,4.83-3.67,1-8.49,4.07-13.28,7.12q-13.23,4.89-26,10.89c-4.27,1.06-8.58,2-12.92,2.81q-10.28,1.89-20.69,2.76c-5.47.45-11.35,1.19-16.42-1.09-7.74-10.19,3.34-20.27,10.53-28.94a75.14,75.14,0,0,0,9.26-5.73c5.11-1.65,11.79-7.69,15.33-9.58a.13.13,0,0,1,0-.06,24.15,24.15,0,0,0,2.15-1.35c6-1.68,18.24-12.33,18.31-19.16a88.95,88.95,0,0,1,.83-3,1.82,1.82,0,0,0,0-.33,5.24,5.24,0,0,0-1.18-3.3c-.15-3.61-17.65-4.76-26.7,8.61-.27.25-.54.49-.8.76a94.59,94.59,0,0,0-7.87,10.06c-1.25.87-2.52,1.72-3.8,2.59-4.64,3.17-9.39,6.17-14.17,9.11-3.2,2-6.58,4.45-10.08,6.39a4.24,4.24,0,0,0-3.05,1.48,29.16,29.16,0,0,1-12.18,1.87c-.08-.13-.15-.26-.21-.38l-.09-.2a10.55,10.55,0,0,1-.18-1.29,5.25,5.25,0,0,0-.17-1c.79-5.21,5.64-10.39,5.42-16.18a18.11,18.11,0,0,0,3.12-7.42c4.15-15.24-8.76-17.12-20.26-13.39a4.81,4.81,0,0,0-2.71.73l-1.64,1a32.31,32.31,0,0,0-5.32,3.11c-2.19,1.24-4.41,2.42-6.67,3.5-3.46,1.37-6.94,2.68-10.47,3.87-16.4.43-24.91,4.13-28.36,8.09a67.09,67.09,0,0,0-13.21,10c-1.86,1.68-3.67,3.43-5.41,5.26-9.55,6.24-19.27,19.22-23.11,26-16.14,23.87,11.74,42.34,33.92,36.52a5.57,5.57,0,0,0,1-.05c8-1.12,16.23-3.13,23.53-6.79a32.88,32.88,0,0,0,2.89-1.63c10.38-4,18.09-10.94,25.11-18.72.79-.74,1.53-1.51,2.26-2.33,1.85-2.07,3.68-4.15,5.51-6.23,0,.21-.09.42-.12.63,3.32-5.23,18.25-15.63,24.06-11.12l.14,3.31c0,1.3.11,2.6.16,3.9-1.43,6.91-.23,14.69,4.57,19a4.93,4.93,0,0,0,1.71,1.43c.95.5,1.91.94,2.87,1.36a14.38,14.38,0,0,0,3.67,1.37,46.61,46.61,0,0,0,8.79,2c4.57,2.67,11.22,2.17,18.21.65,13.35-.15,25.46-6.3,37.81-11.35,3.91-1.33,8-2.75,11.52-4.13a65.33,65.33,0,0,1,7.69-1.76,5.44,5.44,0,0,0,.61-.15c2.12-.06,4.25-.07,6.38-.05a17.65,17.65,0,0,1,4.87,2.1c2.86,1.81,5.15,4,7.84,5.77,6.34,6.52,17.24,8.12,26.95,5.54h0c8.1-1.85,25.82-4.4,36-10.64a39.2,39.2,0,0,1,13.17-2.6l.37,0c.49.21.95.44,1.41.68a18.51,18.51,0,0,1,1.46,3,22.49,22.49,0,0,0,5.27,6.9,21.94,21.94,0,0,0,16,5.31,33.9,33.9,0,0,0,9.41-.94,3.72,3.72,0,0,0,.64-.22c9-1,18-4.5,26.58-7,5-1.45,9.9-2.95,14.81-4.52,3.55-1.13,9.49-4.09,13-1.37a5.41,5.41,0,0,0,.66.44,7.85,7.85,0,0,1,.4,3.31c.31,4.56,5,6.65,10.53,7a8.51,8.51,0,0,0,3.79,0c4.87-.31,9.78-1.75,12.52-3.86a138.49,138.49,0,0,0,14.18-5.91l.32-.15a5.41,5.41,0,0,0,2.14-.8c1-.07,2.09-.2,3.21-.29l.31,0,.68.42c0,.5.05,1,.09,1.51-.55,1-1.1,2.08-1.66,3.11-1.62,2.95-3.29,5.87-5.08,8.72-7.81,5.31-20.62,9.13-26.39,13.95-2.61,1.18-5.24,2.34-7.88,3.44a87.09,87.09,0,0,0-12.45,4.87q-8.2,3-16.58,5.7c-11.06,3.53-22.2,7.2-32.28,12.95-.34.17-.68.33-1,.51-3.36,1.28-7,1.71-10,4H619c-.58.09-1.17.18-1.76.23-2.79-.14-5.6-.34-8.08.54a201.74,201.74,0,0,0-22.64,1.53q-7.35.87-14.71,1.82c-10.93,1-21.85,2.1-32.74,3.45-9.81,1.22-19.78,2.3-29.37,4.73a8,8,0,0,0-2.54.68q-2.44.69-4.86,1.52c-2.11.39-4.22.78-6.32,1.19-9.48,1.4-19.08,2.69-28.07,6.15-3.15.78-6.28,1.58-9.41,2.42-21.83,2.87-44.07,6.9-65.12,13.14a14.71,14.71,0,0,0-1.76.34q-6,1.2-12,2.62l-.17,0c-52.06,6.4-60.15,21.06-25.89,24.87l.38.11A123.48,123.48,0,0,0,372.41,365a10.67,10.67,0,0,0,3.29.19,177.5,177.5,0,0,0,29.67-1.31,83.55,83.55,0,0,0,14.11-1.24c12.4-1.2,24.73-3.08,37-5.48l2.52-.08h0c8.46-.49,17.12-3.06,25.28-6.15,11.68-2.93,23.3-6.18,34.85-9.6,9-1.44,17.51-4.63,26-7.95L555.73,330l20.45-6.45c1.29-.19,2.58-.35,3.89-.46,8.68-.12,16-3.35,22.8-8l6.46-2a4.88,4.88,0,0,0,1.41-.36c.43-.18.86-.34,1.29-.49l1.51-.47a33.2,33.2,0,0,1,3.66-.8c21.22-.67,42.32-3.11,63.69-5.88-1.23,7.3-4.58,12.46-8.21,17.53-9.89,10.33-16.91,23.15-23.42,36-6.19,9.4-12.33,18.86-18.48,28.23a40.71,40.71,0,0,0-5.46,6.67,5,5,0,0,0-.51,1c-3,4.53-5.9,9.14-8.61,13.87a5.37,5.37,0,0,0-.6,1.59c-5,8.42-8.9,17.67-14.13,26.2-5.35,8.7-9.59,16.58-11.9,26.63-2.62,11.38-4.82,22.87-6.81,34.38a5.54,5.54,0,0,0,0,1.51l-.63,2.79a5.41,5.41,0,0,0,1.69,5.26c1.05,2.31,3.28,2.95,7.42.42,2.63-5.18,2.19-11.08,2.91-16.73.22-1.21.45-2.43.68-3.64a17.89,17.89,0,0,1,2.46-5.59l0,0c2.79-13.49,10.62-24.85,15.31-37.38l2.45-4.38.26-.23v0c2.74-5.4,6-10.52,9-15.76,4.11-6.6,8.44-13.2,11.85-20.15,5.19-5.91,10.31-15.48,12.32-20.12,4.19-10.64,13.73-16.49,18.76-25.95,5.29-3.89,16.1-16.45,21.58-28a6.86,6.86,0,0,0,1.3-2.1c.59-.72,1.16-1.46,1.73-2.2,4.62-4.77,8.92-9.82,12-15.61,1.07-1.37,2.16-2.79,3.3-4.14a8.61,8.61,0,0,0,3.73-3.64l.88-.4c9.13,2.22,17.81.12,26.46-2.06,2.74-.31,5.47-.65,8.2-1a144,144,0,0,0,22.08.3c10-.78,19.43-3.74,29.17-5.78,17.46-3.65,35.29-5.84,53-8.29,8-.09,16-.31,23.92-1,4.64,0,9.18-.39,12.71-1.52,4.75-.8,9.47-2.21,14.22-3.09a24.85,24.85,0,0,0,2.78-.45c4.14,0,8.32.22,12.43.19,13.81,3.57,28.64.66,42.39-2.14,3.58-.74,7.14-1.59,10.71-2.4a146.94,146.94,0,0,0,16.32-1.9c2.45-.43,4.88-.91,7.32-1.38,2.93-.15,5.87-.23,8.81-.3.12.22.24.43.38.64h0s0,0,0,0c0,.23.14,1.22.08.21a5.94,5.94,0,0,0,.35,1.61c-1.06,1.42-2.2,2.79-3.36,4.18a75.55,75.55,0,0,0-9,13.31c-2.73,5.21-5.85,10-8.9,15a51.81,51.81,0,0,0-3.93,8.49c-2,2.68-5.19,10.61-5.76,12.47l-.85,1.48c-1.6,2.45-3.09,5-4.51,7.55-4.29,6.88-8.88,13.62-13.3,20.3-6.8,10.3-14.14,20-15.65,32.58a5.2,5.2,0,0,0,0,1.37,5.53,5.53,0,0,0,.72,3.86,6.56,6.56,0,0,0,10.37-1.36,5,5,0,0,0,1.64-3,170.53,170.53,0,0,0,19.32-28.73c3.13-5.92,6-11.9,9-17.84,1.92-2.66,3.76-5.22,4.26-8.29,1.6-3,3.25-6,5-8.95,3.35-5.67,6.6-11.42,10.09-17,3.38-5.41,7.85-9.57,11.84-14.48,4.24-5.22,6.48-12.55,9.9-18.72,4.53-4.76,11.41-6.15,17.8-8.52,6.56.19,13.33,1.17,19.57-.37,15.6.87,31.57-3.24,47-4.64a420.85,420.85,0,0,1,53.38-1.43c17.45.64,34.48.79,51.9-.75,6.9-.61,13.8-1.27,20.7-1.77,13.68-.2,27.45.88,41-.55,6.45.31,12.93.07,19.4-.09.84.06,1.69.12,2.53.2h0c9.33.41,50.88,11.13,41.88-7.9-12.8-9.24-32.37-7.59-47.9-10.28-4.74-2.37-23.19-3.54-31-7.29-2.73-3.09-.67-3.95,2.46-4.68,11-1,23.36-1.3,31.94-8.6a4.05,4.05,0,0,0,1.47-3.88,5.66,5.66,0,0,0-.45-3.86,14,14,0,0,0-.4-1.5l-.58.12a4.35,4.35,0,0,0-4.55-.94c-.79.25-1.58.48-2.37.7-4.88-.38-10.39.78-14.88,1.09l-20.41,1.38c-4.16.28-8.52.74-12.91,1-5.35-1.4-10.7-2.75-16.27-2.09a33.15,33.15,0,0,1-6.49-3.17h.22c-3.56-4.74,1-7.85,4.68-10.6,8.62-1.26,18.36-3.56,26.94-7.61,20.77-5.06,41.66-10,61.94-16.64,4.91-.69,9.83-1.37,14.74-2.07,13.63-2,29.36-5.48,37.33-18a19.43,19.43,0,0,0,1.51-2.94,4.44,4.44,0,0,0,1.17-4.3A15.92,15.92,0,0,0,1361.35,141.54ZM588,155.43l.73-1.06L598,148a6.44,6.44,0,0,0,3.56-2.45l5.16-3.54h0l0,0,4.73-3.25a67.21,67.21,0,0,1,7.12-4.36,67.72,67.72,0,0,0,9.52-3.18c.7-.14,1.4-.27,2.11-.39s1.24-.19,1.86-.27a5.05,5.05,0,0,0,.36,1.89c-5.65,3.81-15.72,8.55-19.09,11.72-2,1.14-4,2.43-6,3.76-5.81,1.78-12.15,6.17-16.49,10.5a68.85,68.85,0,0,0-11.67,8.84c-8.77,2.69-18.89,15.12-26,19.22a10.77,10.77,0,0,1-4.08,4.55,3.66,3.66,0,0,0-.17-.58C560.38,177.21,575.82,167.92,588,155.43Zm-237.56,81.5a45.72,45.72,0,0,0-4.58,3.25,5.61,5.61,0,0,0-.93,1.58,64.88,64.88,0,0,1-12.52,7.61c-7.93,2.81-16,5.11-24.76,5-.81,0-1.63,0-2.43.1s-1.32-.11-2-.18c-3.58-1.36-5.52-4.1-5.44-9.26a28.83,28.83,0,0,1,3.8-13.26c8.39-4.45,12.07-17.17,21.78-21a9.41,9.41,0,0,0,1.95,8.12c6.73,11.66,30.56,5.27,30.77,11.55A59.21,59.21,0,0,1,350.43,236.93ZM378,205.76a29.28,29.28,0,0,1-3.39,3.74c-4.3,3.92-10.24,5.16-15.83,6.5a89.16,89.16,0,0,1-12.63-2.41,9.07,9.07,0,0,1-2-1.6c.78-2.43,1.18-5,3.29-6.83,2.11-2.21,4.93-4.83,7-7,1-.78,2.07-1.53,3.14-2.25a19.15,19.15,0,0,0,6-3.72c2.23-1.3,4.5-2.7,6.83-4a8.25,8.25,0,0,1,1.65-.28,25.87,25.87,0,0,0,5.67-3.46c.57-.24,1.14-.47,1.71-.68,2.34,0,4.55.46,4.94,3,.1.64.16,1.28.21,1.93C383.17,194.43,379.27,199.82,378,205.76Zm110.62,127.9-24.94,6.54c-1.54.32-3.08.63-4.63.93a125.83,125.83,0,0,0-21.14,3.14q-8.87,1-17.83,1.53,9.68-2.19,19-5.2,7.15-1.32,14.27-2.88c16.61,1.46,43.08-12.56,59.17-11.71a4.55,4.55,0,0,0,.52,0C505,328.8,496.73,331.29,488.57,333.66Zm726.55-108.93c4.68.62,9.56.5,14.08.67a5,5,0,0,0,1.37-.12c.41,0,.83.08,1.26.1l.71.05a14.13,14.13,0,0,1,2.35,1.93c1.24,1.89,2.35,4,3.53,5.5a30.46,30.46,0,0,0,4.48,4.53.18.18,0,0,1-.05.07c2.87,4.56,7.53,3.89,11.68,5.11a8.48,8.48,0,0,1,1.84,1.92,5.25,5.25,0,0,0-.53,1.06c-2.19.23-4.39.33-6.59.37l-1.11-.08c-3.45-.24-6.9-.56-10.36-.77-3.08-.19-6.13-.25-9.18-.17-5.3-.44-10.6-.85-15.85-.87-9.89,0-19.75.87-29.62,1.23-10.17.36-20.27-.25-30.41-.89-19.94-1.26-39.57.27-59.45,1.68l-9.11.65a40.28,40.28,0,0,0-11.74.54c-2.58.19-5.15.46-7.7.84l-.37,0c-6.94.49-14.39.52-20.74,3.47a30.13,30.13,0,0,1-5.94-.83c-.57-3.09,3.64-8.45,5-10a41.67,41.67,0,0,0,5.42-7.36,22,22,0,0,1,3.3-1.49,47.72,47.72,0,0,0,7.75-1.93c4.47-.88,9.1-1.67,13.06-3.62a22.74,22.74,0,0,1,5.89-.07q46.29-9.12,92.78-17.84c9.53-2.5,18.24-4.79,25.19,2.33,1.85,3.9,4.18,7.5,7.76,10C1206.44,223.6,1210.57,224.6,1215.12,224.73ZM1332.17,150c-5.8.29-11.84-.2-17.28,2.77-11.07,4.93-22.94,7.21-34.63,10A206,206,0,0,0,1302.84,151c2.21-.52,4.4-1.13,6.56-1.81a11.09,11.09,0,0,0,4.6-1.53c3.59-1.23,7.15-2.53,10.77-3.7,1.69-.55,3.44-1.1,5.22-1.5,2.81.29,5.83-.27,8.64,0,2.34.73,3.39,2.06,3.42,3.89C1338.73,147.36,1335,148.38,1332.17,150Z"/></g></g></svg>